<svg xmlns="http://www.w3.org/2000/svg" viewBox="0 0 256 256">
  <path style="fill:black;fill-rule:evenodd" d="M180.708,59.79L182.435,59.175C186.351,59.355 187.041,59.553 192.121,67.709C194.63,71.954 194.362,72.027 196.331,76.572C198.516,82.876 198.28,82.886 199.666,88.459L200.099,91.54L200.311,93.522L200.99,96.35L201.455,97.524C201.638,97.953 201.82,98.383 202.003,98.812C204.635,101.494 204.568,101.52 205.236,101.972C207.838,103.425 207.775,103.398 210.362,104.806C215.996,108.314 215.984,108.249 216.445,108.588C218.855,110.305 218.67,110.454 221.3,111.706C221.47,111.855 222.377,112.652 223.224,113.782C225.428,116.572 225.473,116.472 227.341,119.569C227.625,120.567 227.91,121.566 228.194,122.565L228.602,124.484C228.865,127.407 228.616,127.322 228.207,131.446C227.875,132.417 227.542,133.388 227.21,134.36C226.104,136.407 226.093,136.343 224.306,139.343C223.304,140.379 223.395,140.383 222.428,141.388C221.014,142.601 220.956,142.439 219.582,143.628C217.428,144.457 217.476,144.348 215.387,145.156C213.745,145.501 212.102,145.847 210.46,146.192L208.493,146.401C196.891,146.492 196.992,145.495 185.488,146.237L184.449,146.145C181.445,146.243 181.526,146.336 178.521,146.656C177.498,146.833 176.475,147.009 175.451,147.186L174.453,147.337C173.119,147.648 171.785,147.958 170.45,148.269C168.434,148.943 166.419,149.617 164.403,150.291C161.199,151.55 161.232,151.417 158.302,153.155C155.258,154.461 155.451,154.679 151.467,157.345L150.657,157.151C150.301,156.936 149.945,156.72 149.589,156.505L149.687,155.498C150.401,152.448 150.222,152.499 149.898,149.446C149.859,148.118 149.82,146.791 149.781,145.464L149.261,142.548C148.614,139.425 148.545,139.536 147.677,136.451C146.453,133.281 146.431,133.386 144.766,130.419C144.386,129.739 144.006,129.059 143.626,128.379C139.836,123.378 139.913,122.642 133.79,118.121C132.696,117.473 132.81,117.493 131.685,117.053C128.185,114.052 127.907,114.683 123.669,113.02L120.599,112.035C109.854,108.977 101.596,104.463 100.071,113.441C100.368,115.265 100.239,115.262 101.181,116.783C102.634,118.057 102.573,118.073 104.389,118.84C107.737,119.842 107.616,119.971 110.507,120.482C112.573,121.21 114.165,121.477 114.49,121.531L115.451,121.797C116.438,122.137 117.426,122.478 118.414,122.818C119.867,123.451 119.848,123.312 121.314,123.95C121.638,124.092 121.612,124.085 125.346,125.762C125.958,126.167 126.569,126.572 127.181,126.977C127.557,127.212 127.934,127.448 128.31,127.684C128.692,127.979 129.075,128.274 129.457,128.569C129.798,128.886 130.14,129.204 130.482,129.521C135.777,134.427 137.616,141.254 137.926,142.403C138.793,146.907 138.742,146.854 139.132,151.478C139.151,153.487 139.17,155.495 139.189,157.504C139.485,160.668 139.241,160.635 140.335,163.558C141.92,166.686 142.112,166.626 145.447,167.781C146.327,167.872 150.785,168.335 156.493,168.245C166.858,168.246 166.819,168.14 172.494,168.374C173.185,168.528 177.923,169.179 181.084,172.898C183.458,176.414 183.452,176.368 184.359,180.52C184.29,181.502 184.221,182.485 184.151,183.467L183.354,186.425C182.41,187.936 182.414,187.828 181.174,189.208C178.368,190.244 178.384,189.986 175.505,190.454C173.467,190.387 173.573,190.458 171.508,190.4C170.835,190.403 170.162,190.407 169.489,190.411C159.054,189.545 148.341,190.31 146.507,190.441C142.92,190.413 143.032,190.414 139.507,190.389C138.835,190.4 138.162,190.411 137.49,190.422C134.925,190.381 135.036,190.33 132.501,190.538C128.497,190.449 126.117,190.141 125.565,190.07C120.847,187.505 120.407,187.296 116.72,184.336C116.388,183.981 116.057,183.625 115.725,183.269C115.416,182.935 115.414,183.097 111.694,179.252C110.036,177.606 108.378,175.961 106.719,174.315L105.666,173.287C98.371,166.155 98.54,166.109 96.459,164.543C95.547,163.371 95.615,163.45 94.614,162.38C93.565,161.387 93.641,161.445 92.406,160.594C91.049,158.955 91.123,158.981 89.538,157.462C88.47,156.53 87.669,155.651 87.516,155.483C87.181,155.152 86.846,154.821 86.51,154.489C86.338,154.343 85.428,153.575 84.465,152.534C83.627,151.571 68.054,136.422 67.814,136.183C67.462,135.89 65.154,133.976 63.642,132.268C62.194,130.774 62.255,130.795 60.646,129.398C58.502,127.447 58.802,127.224 56.509,125.492C56.17,125.164 55.831,124.836 55.492,124.509C53.921,122.742 53.846,122.847 51.525,122.22C47.869,122.523 48.007,122.767 44.523,123.662C43.173,123.686 41.824,123.71 40.474,123.734C34.243,122.582 33.438,120.774 30.807,118.311C30.436,117.705 30.373,117.827 29.981,117.186C29.888,117.032 29.9,117.041 28.877,115.231C27.752,111.912 27.453,112.039 27.063,108.52C27.084,107.502 27.215,101.17 31.739,96.68C33.138,95.587 33.119,95.692 34.541,94.574C34.93,94.302 35.32,94.03 35.709,93.758C39.464,92.059 39.466,92.29 43.494,91.432C44.788,91.599 46.083,91.767 47.378,91.934C49.528,92.625 49.552,92.443 51.46,93.592C51.701,93.746 53.277,94.751 54.376,95.669C59.211,99.712 60.824,94.909 61.94,93.985C64.024,92.127 69.771,87.798 72.882,85.975C74.452,85.224 76.022,84.473 77.592,83.722C77.963,83.475 78.334,83.229 78.705,82.983C82.127,82.115 82.115,82.129 82.373,82.037L85.423,81.154C87.446,80.892 89.468,80.629 91.49,80.366C97.008,80.598 96.962,80.417 102.442,80.932C108.057,82.113 107.981,82.085 113.437,83.731C114.326,84.004 116.437,84.654 124.289,87.888C126.295,88.894 128.3,89.9 130.305,90.905C136.643,93.942 136.734,94.482 140.246,95.747C140.659,96.008 141.072,96.269 141.486,96.53C145.819,99.056 145.719,99.067 147.336,99.847C150.749,102.043 150.632,102.048 154.28,103.781C154.929,104.169 154.837,104.294 162.216,108.926C169.87,113.477 170.992,116.591 172.902,112.758C174.42,110.226 174.792,108.572 172.777,105.324C169.113,101.378 168.968,101.683 164.717,98.239C164.329,97.971 163.941,97.702 163.552,97.434C155.16,89.569 155.174,89.503 149.794,79.357C149.408,78.391 149.022,77.425 148.636,76.459C147.757,71.579 149.153,71.622 151.562,69.7C154.988,69.037 154.926,69.646 158.259,70.71C158.649,71.033 159.04,71.355 159.43,71.677C162.248,73.537 162.241,73.398 165.241,74.887C166.87,75.944 166.778,75.876 168.356,76.868C170.898,79.224 170.722,79.323 173.52,81.478C173.739,81.671 175.091,82.859 176.21,83.936C178.469,86.928 179.087,85.643 179.202,85.403C179.721,84.325 179.1,84.347 178.223,70.486C178.15,69.305 177.447,63.342 179.803,60.762C180.105,60.438 180.406,60.114 180.708,59.79ZM202.499,118.485C202.767,118.979 203.52,118.571 203.592,120.5C203.65,122.045 204.534,122.479 204.599,122.616C200.236,125.85 198.263,123.689 196.506,122.494C196.86,122.025 196.719,122.054 197.086,121.568C197.171,121.454 197.168,121.465 198.196,120.176L199.651,120.126C201.46,120.139 201.402,119.874 202.499,118.485ZM196.051,116.222C198.893,116.518 198.786,116.524 201.604,116.75C201.902,117.328 202.201,117.906 202.499,118.485C201.402,119.874 201.46,120.139 199.651,120.126C198.985,119.183 199.671,118.071 198.592,118.625C198.118,118.869 198.671,119.932 198.196,120.176C197.168,121.465 197.171,121.454 197.086,121.568C196.719,122.054 196.86,122.025 196.506,122.494C195.385,120.443 194.206,119.822 196.051,116.222ZM196.051,116.222C198.108,112.587 204.774,111.451 205.918,118.454C203.7,117.47 204.004,116.627 201.604,116.75C198.786,116.524 198.893,116.518 196.051,116.222ZM201.604,116.75C204.004,116.627 203.7,117.47 205.918,118.454C205.555,120.683 205.934,120.764 204.599,122.616C204.534,122.479 203.65,122.045 203.592,120.5C203.52,118.571 202.767,118.979 202.499,118.485C202.201,117.906 201.902,117.328 201.604,116.75Z"/>
  <path style="fill:black;fill-rule:evenodd" d="M98.443,176.549C98.778,176.886 99.114,177.222 99.449,177.559C100.375,178.598 101.302,179.637 102.228,180.676C103.366,183.342 105.563,185.407 99.3,189.26C95.701,191.578 95.807,191.601 92.326,194.06C91.174,194.47 91.287,194.456 90.181,195.06C88.552,195.968 87.623,197.653 82.77,196.269C81.719,194.883 81.013,187.31 80.939,186.52C80.892,185.686 79.818,181.602 82.72,178.691L83.694,177.726C85.798,175.701 88.514,174.495 89.217,174.05C93.996,171.021 94.694,172.337 98.443,176.549Z"/>
  <path style="fill:black;fill-rule:evenodd" d="M202.003,98.812C202.677,99.111 203.352,99.41 204.026,99.71L204.482,100.534L205.236,101.972C204.568,101.52 204.635,101.494 202.003,98.812Z"/>
  <path style="fill:black;fill-rule:evenodd" d="M84.465,152.534C85.428,153.575 86.338,154.343 86.51,154.489L85.713,154.311C85.382,153.958 85.05,153.606 84.719,153.254L84.465,152.534Z"/>
  <path style="fill:black;fill-rule:evenodd" d="M98.443,176.549C98.991,176.563 99.54,176.576 100.089,176.59L99.449,177.559C99.114,177.222 98.778,176.886 98.443,176.549Z"/>
  <path style="fill:black;fill-rule:evenodd" d="M87.516,155.483C87.669,155.651 88.47,156.53 89.538,157.462L88.822,157.223C88.752,157.155 87.983,157.855 87.516,155.483Z"/>
  <path style="fill:black;fill-rule:evenodd" d="M200.311,93.522C200.614,94.181 200.917,94.84 201.22,95.499L200.99,96.35L200.311,93.522Z"/>
</svg>
