<?xml version="1.0" encoding="UTF-8" standalone="no"?>
<svg width="100%" height="100%" viewBox="0 0 64 64" version="1.1" xmlns="http://www.w3.org/2000/svg" xml:space="preserve" style="fill-rule:evenodd;clip-rule:evenodd;stroke-linejoin:round;stroke-miterlimit:2;">
    <g transform="matrix(1.553242,0,0,1.561542,-13.188801,-18.262009)">
        <path fill="black" d="M49.145,18.301L46.348,25.375L37.52,25.375L36.707,29.688L45.273,29.688L42.477,36.727L35.5,36.746L33.184,48.117L19.414,47.188L33.523,46.258L18.012,45.328L33.863,44.391L11.934,43.449L34.238,42.523L16.152,41.582L34.586,40.656L13.211,39.727L34.957,38.785L16.055,37.859L35.293,36.93L9.379,35.988L35.645,35.062L16.191,34.133L36.012,33.203L20.496,32.273L36.352,31.344L12.832,30.414L36.688,29.699L22.625,28.559L37.055,27.629L11.691,26.699L37.395,25.355L20.594,24.773L37.762,23.844L16.055,22.918L38.102,21.988L19.035,21.059L38.469,20.129L22.965,19.191L33.523,18.59C38.293,18.32 47.566,18.223 49.145,18.301Z"/>
    </g>
</svg>
