<svg xmlns="http://www.w3.org/2000/svg" viewBox="-5 -10 110 110"><path d="m19.898 62.699c-4.1016 5.8984-2.3984 11.801-2.3008 11.898 0 0.19922 1 3.8008 3.6992 5.8008 0.60156 0.39844 1.3008 0.60156 2 0.60156h0.5c2.8008-0.39844 9.8984-1.6016 14.102-4 1-0.5 1.6016-1.5 1.6992-2.6016 0.10156-1.6992 0.30078-4.8984 0-6.8984 0.89844-0.60156 3.5-2 10.199-2.3008h0.69922c6.6992 0.30078 9.3008 1.6016 10.199 2.3008-0.30078 2-0.10156 5.1016 0 6.8984 0.10156 1.1016 0.69922 2.1016 1.6992 2.6016 4.1992 2.3984 11.301 3.6016 14.102 4 0.89844 0.10156 1.6992-0.10156 2.3984-0.60156 2.8008-2 3.6992-5.6992 3.6992-5.8008 0.10156-0.19922 1.8008-6.1016-2.3008-12-4.793-6.6992-14.793-10.598-29.895-11.598h-0.89844c-15 1-25 4.8984-29.602 11.699z"/><path d="m33.5 20.5c-0.69922-0.69922-1.6992-1-2.6992-1-1.1016 0-2.1992 0.5-2.8984 1.3008-1.5 1.6016-1.3984 4.1016 0.19922 5.6016l19.398 17.801c0.80078 0.69922 1.6992 1.1016 2.6992 1.1016s2-0.39844 2.8008-1.1992l11.398-11.398 4.3984 4.3008c0.30078 0.30078 0.69922 0.39844 1.1016 0.39844 0.19922 0 0.30078 0 0.5-0.10156 0.5-0.19922 0.89844-0.69922 1-1.3008l1.5-15.602c0-0.39844-0.10156-0.89844-0.39844-1.1992-0.30078-0.30078-0.69922-0.5-1.1992-0.39844l-15.898 1.3008c-0.60156 0-1.1016 0.39844-1.3008 1-0.19922 0.60156-0.10156 1.1992 0.39844 1.6016l4.3984 4.3008-8.6016 8.6016z"/></svg>
