<svg xmlns="http://www.w3.org/2000/svg" viewBox="-5 -10 110 110"><path d="m89.707 97.918h-14.262c-2.1328 0-4.0742-0.87109-5.4766-2.2734l-0.11328-0.12109c-1.3359-1.3945-2.1641-3.2852-2.1641-5.3555v-8.793c-2.2461-1.5156-4.8281-2.7148-7.6094-3.5625-3.1445-0.95703-6.5664-1.4648-10.086-1.4648-3.5195 0-6.9453 0.50781-10.086 1.4648-2.7812 0.84375-5.3633 2.0469-7.6094 3.5625v8.793c0 2.1289-0.87109 4.0664-2.2734 5.4727-1.4023 1.4102-3.3438 2.2812-5.4766 2.2812h-14.262c-2.1328 0-4.0742-0.87109-5.4766-2.2734-1.4023-1.4023-2.2734-3.3438-2.2734-5.4766v-9.8281c0-7.2148 6.0508-13.168 14.391-17.508 9.9414-5.1758 23.309-8.1602 33.074-8.1602 9.7617 0 23.129 2.9844 33.07 8.1602 8.3398 4.3398 14.391 10.293 14.391 17.508v9.8281c0 2.1328-0.87109 4.0742-2.2734 5.4766l-0.12109 0.11328c-1.3945 1.3359-3.2852 2.1641-5.3555 2.1641zm-26.867-91.484 26.535-4.3242c0.21094-0.035156 0.43359-0.039063 0.65625-0.003906 1.0859 0.17578 1.8242 1.2031 1.6484 2.2891l-4.3047 26.418c-0.042969 0.44922-0.23438 0.88281-0.57812 1.2266-0.78125 0.78125-2.0469 0.78125-2.8281 0l-5.8984-5.9062-22.383 22.383c-1.543 1.543-3.5781 2.3203-5.6094 2.3203s-4.0625-0.77344-5.6094-2.3203l-28.926-28.926c-0.78125-0.78125-0.78125-2.0469 0-2.8281l7.5859-7.5859c0.78125-0.78125 2.0469-0.78125 2.8281 0l24.117 24.117 17.57-17.57-5.8906-5.8984c-0.29297-0.28516-0.49609-0.66406-0.56641-1.1016-0.17578-1.0859 0.5625-2.1133 1.6484-2.2891z"/></svg>
