<svg xmlns="http://www.w3.org/2000/svg" viewBox="0 0 32 32"><path d="M16,2.714c-7.689,0-13.922,5.111-13.922,11.417c0,4.134,2.688,7.744,6.7,9.748v5.408l4.409-3.973c0.908,0.152,1.849,0.233,2.813,0.233c7.688,0,13.922-5.11,13.922-11.417C29.922,7.825,23.688,2.714,16,2.714z M7.605,14.13c0-0.853,0.691-1.544,1.544-1.544s1.544,0.691,1.544,1.544s-0.691,1.544-1.544,1.544S7.605,14.983,7.605,14.13z M16,15.675c-0.854,0-1.545-0.691-1.545-1.544s0.691-1.544,1.545-1.544s1.545,0.691,1.545,1.544S16.854,15.675,16,15.675z M22.851,15.675c-0.853,0-1.544-0.691-1.544-1.544s0.691-1.544,1.544-1.544s1.544,0.691,1.544,1.544S23.703,15.675,22.851,15.675z"/></svg>
