<svg xmlns="http://www.w3.org/2000/svg" viewBox="-5 -10 110 110"><path d="m76.562 29.688c-11.199 0-20.312 9.1133-20.312 20.312 0 4.0273 1.1914 7.7773 3.2227 10.938h-18.945c2.0312-3.1602 3.2227-6.9102 3.2227-10.938 0-11.199-9.1133-20.312-20.312-20.312s-20.312 9.1133-20.312 20.312 9.1133 20.312 20.312 20.312h53.125c11.199 0 20.312-9.1133 20.312-20.312s-9.1133-20.312-20.312-20.312zm-53.125 31.25c-6.0312 0-10.938-4.9062-10.938-10.938s4.9062-10.938 10.938-10.938 10.938 4.9062 10.938 10.938-4.9062 10.938-10.938 10.938zm53.125 0c-6.0312 0-10.938-4.9062-10.938-10.938s4.9062-10.938 10.938-10.938 10.938 4.9062 10.938 10.938-4.9062 10.938-10.938 10.938z"/></svg>
