<svg xmlns="http://www.w3.org/2000/svg" xmlns:xlink="http://www.w3.org/1999/xlink" width="500" zoomAndPan="magnify" viewBox="0 0 375 374.999991" height="500" preserveAspectRatio="xMidYMid meet" version="1.0"><defs><g/><clipPath id="adff96fa15"><path d="M 29 27.207031 L 359 27.207031 L 359 332 L 29 332 Z M 29 27.207031 " clip-rule="nonzero"/></clipPath></defs><g clip-path="url(#adff96fa15)"><path fill="#000000" d="M 358.316406 84.359375 C 358.230469 85.066406 358.082031 85.757812 357.867188 86.4375 C 357.65625 87.117188 357.382812 87.773438 357.050781 88.402344 C 356.71875 89.03125 356.332031 89.628906 355.894531 90.1875 C 355.453125 90.746094 354.964844 91.261719 354.429688 91.730469 C 353.894531 92.203125 353.320312 92.621094 352.710938 92.984375 C 352.097656 93.351562 351.457031 93.660156 350.792969 93.90625 C 350.125 94.15625 349.4375 94.34375 348.738281 94.464844 C 348.035156 94.589844 347.328125 94.648438 346.617188 94.644531 L 345.210938 94.644531 L 304.613281 89.617188 C 306.277344 91.898438 307.878906 94.226562 309.414062 96.597656 C 310.949219 98.964844 312.417969 101.378906 313.816406 103.828125 C 315.21875 106.28125 316.550781 108.769531 317.8125 111.296875 C 319.074219 113.820312 320.265625 116.382812 321.382812 118.972656 C 322.503906 121.566406 323.546875 124.1875 324.523438 126.835938 C 325.496094 129.488281 326.394531 132.164062 327.214844 134.863281 C 328.039062 137.566406 328.789062 140.285156 329.460938 143.027344 C 330.132812 145.769531 330.726562 148.53125 331.242188 151.304688 C 331.761719 154.082031 332.203125 156.867188 332.5625 159.667969 C 332.925781 162.46875 333.210938 165.273438 333.414062 168.089844 C 333.621094 170.90625 333.746094 173.726562 333.796875 176.546875 C 333.84375 179.371094 333.8125 182.191406 333.703125 185.015625 C 333.597656 187.835938 333.40625 190.652344 333.140625 193.460938 C 332.875 196.273438 332.53125 199.074219 332.109375 201.863281 C 331.6875 204.65625 331.1875 207.433594 330.609375 210.195312 C 330.03125 212.960938 329.375 215.707031 328.644531 218.433594 C 327.914062 221.160156 327.109375 223.863281 326.226562 226.546875 C 325.347656 229.230469 324.390625 231.882812 323.359375 234.511719 C 322.332031 237.140625 321.226562 239.742188 320.054688 242.308594 C 318.878906 244.875 317.632812 247.410156 316.316406 249.90625 C 315 252.40625 313.617188 254.863281 312.164062 257.285156 C 310.710938 259.707031 309.191406 262.085938 307.605469 264.421875 C 306.019531 266.757812 304.367188 269.050781 302.652344 271.292969 C 300.941406 273.539062 299.164062 275.734375 297.328125 277.878906 C 295.492188 280.027344 293.597656 282.121094 291.644531 284.160156 C 289.691406 286.199219 287.683594 288.183594 285.617188 290.113281 C 283.554688 292.042969 281.4375 293.910156 279.269531 295.722656 C 277.101562 297.53125 274.886719 299.28125 272.617188 300.96875 C 270.351562 302.65625 268.042969 304.277344 265.6875 305.835938 C 263.328125 307.394531 260.929688 308.886719 258.492188 310.3125 C 256.050781 311.738281 253.574219 313.09375 251.058594 314.378906 C 248.542969 315.667969 245.996094 316.882812 243.410156 318.027344 C 240.828125 319.171875 238.214844 320.246094 235.574219 321.246094 C 232.929688 322.246094 230.261719 323.171875 227.566406 324.019531 C 224.871094 324.871094 222.15625 325.648438 219.417969 326.347656 C 216.679688 327.046875 213.925781 327.671875 211.152344 328.214844 C 208.378906 328.761719 205.59375 329.230469 202.796875 329.621094 C 199.996094 330.015625 197.1875 330.328125 194.371094 330.5625 C 191.558594 330.796875 188.734375 330.953125 185.910156 331.03125 C 183.085938 331.109375 180.261719 331.109375 177.4375 331.027344 C 174.613281 330.949219 171.792969 330.789062 168.976562 330.554688 C 166.160156 330.316406 163.351562 330.003906 160.554688 329.609375 C 157.753906 329.21875 154.96875 328.746094 152.195312 328.199219 C 149.425781 327.652344 146.667969 327.027344 143.933594 326.324219 C 141.195312 325.625 138.480469 324.847656 135.785156 323.992188 C 133.089844 323.140625 130.421875 322.214844 127.78125 321.214844 C 125.136719 320.210938 122.527344 319.136719 119.945312 317.992188 C 117.359375 316.84375 114.8125 315.628906 112.296875 314.339844 C 109.785156 313.050781 107.308594 311.691406 104.867188 310.265625 C 102.429688 308.839844 100.03125 307.347656 97.675781 305.785156 C 95.320312 304.226562 93.011719 302.601562 90.746094 300.914062 C 88.480469 299.226562 86.265625 297.476562 84.097656 295.664062 C 81.933594 293.851562 79.816406 291.980469 77.753906 290.050781 C 75.691406 288.121094 73.683594 286.136719 71.730469 284.09375 C 69.78125 282.050781 67.886719 279.957031 66.050781 277.8125 C 64.214844 275.664062 62.441406 273.46875 60.730469 271.222656 C 59.015625 268.976562 57.367188 266.683594 55.785156 264.347656 C 54.199219 262.011719 52.679688 259.628906 51.230469 257.207031 C 49.777344 254.785156 48.394531 252.324219 47.078125 249.828125 C 45.765625 247.328125 44.519531 244.792969 43.347656 242.226562 C 42.175781 239.65625 41.074219 237.058594 40.046875 234.429688 C 39.015625 231.800781 38.0625 229.144531 37.183594 226.460938 C 36.304688 223.777344 35.5 221.074219 34.769531 218.34375 C 34.039062 215.617188 33.386719 212.871094 32.8125 210.109375 C 32.234375 207.34375 31.738281 204.566406 31.316406 201.773438 C 30.894531 198.984375 30.554688 196.179688 30.289062 193.371094 C 30.023438 190.558594 29.835938 187.746094 29.730469 184.921875 C 29.621094 182.101562 29.59375 179.28125 29.644531 176.457031 C 29.695312 173.632812 29.824219 170.816406 30.03125 168 C 30.238281 165.183594 30.523438 162.378906 30.886719 159.578125 C 31.25 156.777344 31.691406 153.992188 32.210938 151.214844 C 32.730469 148.441406 33.328125 145.683594 34 142.941406 C 34.675781 140.199219 35.421875 137.476562 36.25 134.777344 C 37.074219 132.078125 37.972656 129.402344 38.949219 126.753906 C 39.921875 124.101562 40.96875 121.480469 42.089844 118.890625 C 43.210938 116.296875 44.402344 113.738281 45.667969 111.214844 C 46.929688 108.6875 48.261719 106.199219 49.664062 103.75 C 51.066406 101.300781 52.539062 98.890625 54.074219 96.519531 C 55.609375 94.152344 57.210938 91.824219 58.878906 89.546875 C 60.546875 87.265625 62.273438 85.035156 64.066406 82.851562 C 65.855469 80.667969 67.707031 78.535156 69.617188 76.453125 C 71.527344 74.371094 73.492188 72.347656 75.515625 70.375 C 77.539062 68.402344 79.617188 66.492188 81.746094 64.636719 C 83.875 62.78125 86.054688 60.984375 88.285156 59.25 C 90.515625 57.515625 92.792969 55.84375 95.113281 54.238281 C 97.4375 52.628906 99.804688 51.089844 102.214844 49.613281 C 104.621094 48.136719 107.070312 46.730469 109.558594 45.390625 C 112.046875 44.050781 114.570312 42.78125 117.128906 41.582031 C 119.6875 40.382812 122.277344 39.257812 124.898438 38.203125 C 127.519531 37.148438 130.167969 36.167969 132.84375 35.261719 C 135.519531 34.351562 138.21875 33.519531 140.941406 32.765625 C 143.664062 32.007812 146.40625 31.328125 149.167969 30.722656 C 151.925781 30.117188 154.703125 29.589844 157.492188 29.140625 C 160.28125 28.691406 163.082031 28.320312 165.894531 28.027344 C 168.703125 27.734375 171.519531 27.515625 174.34375 27.378906 C 177.167969 27.242188 179.992188 27.183594 182.816406 27.207031 C 183.585938 27.207031 184.34375 27.28125 185.097656 27.429688 C 185.851562 27.578125 186.585938 27.800781 187.292969 28.09375 C 188.003906 28.390625 188.679688 28.75 189.316406 29.175781 C 189.957031 29.601562 190.546875 30.085938 191.089844 30.628906 C 191.632812 31.171875 192.117188 31.761719 192.542969 32.398438 C 192.972656 33.039062 193.332031 33.710938 193.625 34.421875 C 193.917969 35.128906 194.140625 35.859375 194.292969 36.613281 C 194.441406 37.367188 194.515625 38.125 194.515625 38.894531 C 194.515625 39.660156 194.441406 40.421875 194.292969 41.171875 C 194.140625 41.925781 193.917969 42.65625 193.625 43.367188 C 193.332031 44.074219 192.972656 44.75 192.542969 45.386719 C 192.117188 46.023438 191.632812 46.617188 191.089844 47.15625 C 190.546875 47.699219 189.957031 48.183594 189.316406 48.613281 C 188.679688 49.039062 188.003906 49.398438 187.292969 49.691406 C 186.585938 49.984375 185.851562 50.207031 185.097656 50.355469 C 184.34375 50.507812 183.585938 50.582031 182.816406 50.582031 C 180.417969 50.574219 178.023438 50.636719 175.628906 50.761719 C 173.234375 50.890625 170.847656 51.082031 168.464844 51.34375 C 166.082031 51.605469 163.707031 51.929688 161.34375 52.324219 C 158.976562 52.71875 156.625 53.175781 154.285156 53.699219 C 151.949219 54.226562 149.625 54.8125 147.320312 55.46875 C 145.011719 56.121094 142.726562 56.839844 140.460938 57.621094 C 138.195312 58.402344 135.953125 59.246094 133.734375 60.15625 C 131.515625 61.0625 129.324219 62.03125 127.160156 63.058594 C 124.996094 64.085938 122.859375 65.175781 120.757812 66.324219 C 118.652344 67.472656 116.582031 68.679688 114.546875 69.941406 C 112.511719 71.207031 110.511719 72.527344 108.546875 73.902344 C 106.585938 75.277344 104.664062 76.707031 102.78125 78.1875 C 100.898438 79.671875 99.058594 81.207031 97.261719 82.792969 C 95.464844 84.378906 93.714844 86.011719 92.007812 87.695312 C 90.304688 89.378906 88.648438 91.105469 87.039062 92.882812 C 85.429688 94.660156 83.871094 96.476562 82.367188 98.339844 C 80.859375 100.203125 79.40625 102.105469 78.003906 104.050781 C 76.605469 105.996094 75.261719 107.976562 73.972656 109.996094 C 72.679688 112.011719 71.449219 114.066406 70.273438 116.152344 C 69.101562 118.242188 67.984375 120.359375 66.929688 122.511719 C 65.871094 124.660156 64.878906 126.839844 63.941406 129.042969 C 63.007812 131.25 62.136719 133.480469 61.328125 135.734375 C 60.519531 137.988281 59.773438 140.261719 59.089844 142.558594 C 58.40625 144.855469 57.789062 147.167969 57.238281 149.496094 C 56.683594 151.828125 56.195312 154.171875 55.773438 156.527344 C 55.351562 158.886719 54.996094 161.253906 54.707031 163.628906 C 54.417969 166.007812 54.195312 168.390625 54.039062 170.78125 C 53.882812 173.171875 53.796875 175.5625 53.773438 177.957031 C 53.75 180.351562 53.796875 182.746094 53.90625 185.136719 C 54.019531 187.53125 54.199219 189.917969 54.441406 192.300781 C 54.6875 194.683594 55 197.054688 55.378906 199.421875 C 55.753906 201.785156 56.199219 204.136719 56.710938 206.476562 C 57.21875 208.816406 57.792969 211.140625 58.433594 213.449219 C 59.074219 215.757812 59.777344 218.046875 60.542969 220.316406 C 61.3125 222.585938 62.140625 224.828125 63.035156 227.050781 C 63.929688 229.273438 64.882812 231.46875 65.898438 233.640625 C 66.914062 235.808594 67.992188 237.949219 69.125 240.054688 C 70.261719 242.164062 71.457031 244.242188 72.707031 246.285156 C 73.960938 248.324219 75.265625 250.332031 76.632812 252.300781 C 77.996094 254.269531 79.414062 256.199219 80.886719 258.089844 C 82.355469 259.980469 83.878906 261.828125 85.457031 263.632812 C 87.03125 265.4375 88.65625 267.199219 90.328125 268.914062 C 92.003906 270.628906 93.722656 272.292969 95.492188 273.914062 C 97.257812 275.53125 99.070312 277.097656 100.921875 278.617188 C 102.777344 280.132812 104.671875 281.597656 106.609375 283.007812 C 108.546875 284.421875 110.519531 285.777344 112.535156 287.078125 C 114.546875 288.378906 116.59375 289.625 118.675781 290.8125 C 120.757812 292 122.871094 293.125 125.015625 294.195312 C 127.160156 295.265625 129.335938 296.273438 131.535156 297.21875 C 133.738281 298.167969 135.964844 299.054688 138.214844 299.878906 C 140.464844 300.699219 142.738281 301.460938 145.03125 302.15625 C 147.328125 302.855469 149.636719 303.484375 151.964844 304.054688 C 154.296875 304.621094 156.636719 305.121094 158.996094 305.558594 C 161.351562 305.996094 163.71875 306.367188 166.097656 306.671875 C 168.476562 306.976562 170.859375 307.214844 173.25 307.386719 C 175.640625 307.558594 178.035156 307.660156 180.433594 307.699219 C 182.832031 307.738281 185.226562 307.707031 187.621094 307.613281 C 190.015625 307.515625 192.40625 307.355469 194.792969 307.125 C 197.179688 306.894531 199.558594 306.601562 201.929688 306.238281 C 204.296875 305.875 206.65625 305.449219 209 304.953125 C 211.347656 304.460938 213.675781 303.902344 215.992188 303.277344 C 218.304688 302.652344 220.601562 301.964844 222.878906 301.214844 C 225.152344 300.460938 227.40625 299.648438 229.636719 298.769531 C 231.867188 297.890625 234.070312 296.953125 236.25 295.953125 C 238.425781 294.949219 240.574219 293.890625 242.695312 292.769531 C 244.8125 291.648438 246.898438 290.46875 248.953125 289.234375 C 251.003906 287.996094 253.019531 286.703125 255 285.351562 C 256.980469 284.003906 258.921875 282.597656 260.824219 281.140625 C 262.726562 279.683594 264.585938 278.171875 266.402344 276.609375 C 268.21875 275.050781 269.992188 273.4375 271.71875 271.777344 C 273.445312 270.117188 275.125 268.410156 276.757812 266.652344 C 278.390625 264.898438 279.96875 263.101562 281.5 261.257812 C 283.03125 259.414062 284.511719 257.53125 285.9375 255.605469 C 287.363281 253.679688 288.730469 251.714844 290.046875 249.714844 C 291.363281 247.710938 292.621094 245.675781 293.824219 243.605469 C 295.027344 241.53125 296.167969 239.425781 297.253906 237.292969 C 298.335938 235.15625 299.359375 232.992188 300.324219 230.796875 C 301.289062 228.605469 302.1875 226.386719 303.027344 224.144531 C 303.867188 221.898438 304.640625 219.636719 305.355469 217.347656 C 306.066406 215.0625 306.714844 212.757812 307.296875 210.433594 C 307.882812 208.113281 308.398438 205.773438 308.851562 203.421875 C 309.304688 201.070312 309.691406 198.707031 310.011719 196.335938 C 310.332031 193.960938 310.585938 191.582031 310.773438 189.195312 C 310.960938 186.804688 311.082031 184.414062 311.132812 182.019531 C 311.1875 179.625 311.175781 177.234375 311.09375 174.839844 C 311.011719 172.445312 310.867188 170.054688 310.652344 167.671875 C 310.4375 165.285156 310.15625 162.910156 309.8125 160.539062 C 309.464844 158.167969 309.050781 155.8125 308.570312 153.464844 C 308.09375 151.117188 307.550781 148.785156 306.941406 146.472656 C 306.332031 144.15625 305.65625 141.855469 304.917969 139.578125 C 304.179688 137.300781 303.378906 135.042969 302.515625 132.808594 C 301.652344 130.578125 300.726562 128.367188 299.738281 126.1875 C 298.75 124.003906 297.703125 121.851562 296.597656 119.726562 C 295.488281 117.601562 294.320312 115.511719 293.097656 113.453125 C 291.871094 111.394531 290.589844 109.371094 289.25 107.386719 C 287.914062 105.398438 286.519531 103.449219 285.074219 101.539062 L 282.265625 142.800781 C 282.214844 143.53125 282.09375 144.253906 281.90625 144.960938 C 281.71875 145.671875 281.46875 146.359375 281.152344 147.019531 C 280.835938 147.683594 280.457031 148.3125 280.023438 148.902344 C 279.585938 149.492188 279.101562 150.039062 278.5625 150.539062 C 278.023438 151.039062 277.445312 151.484375 276.820312 151.875 C 276.199219 152.265625 275.546875 152.597656 274.863281 152.863281 C 274.179688 153.132812 273.472656 153.332031 272.753906 153.46875 C 272.03125 153.605469 271.300781 153.671875 270.566406 153.667969 L 269.746094 153.667969 C 268.976562 153.617188 268.222656 153.492188 267.476562 153.289062 C 266.734375 153.089844 266.015625 152.816406 265.328125 152.472656 C 264.636719 152.132812 263.988281 151.722656 263.378906 151.253906 C 262.769531 150.78125 262.210938 150.257812 261.703125 149.675781 C 261.199219 149.09375 260.753906 148.46875 260.375 147.800781 C 259.992188 147.132812 259.679688 146.433594 259.433594 145.703125 C 259.191406 144.972656 259.023438 144.222656 258.925781 143.460938 C 258.832031 142.695312 258.808594 141.929688 258.867188 141.164062 L 263.546875 73.023438 L 263.546875 72.320312 C 263.597656 71.96875 263.597656 71.621094 263.546875 71.269531 C 263.726562 70.589844 263.960938 69.925781 264.25 69.28125 C 264.25 69.28125 264.25 68.582031 264.25 68.347656 C 264.464844 67.847656 264.777344 67.417969 265.183594 67.0625 C 265.183594 67.0625 265.183594 66.359375 265.769531 66.007812 C 266.355469 65.660156 265.769531 66.007812 266.472656 66.007812 L 266.472656 65.308594 L 267.875 64.488281 L 269.511719 63.554688 L 271.851562 63.554688 C 272.554688 63.441406 273.257812 63.441406 273.960938 63.554688 L 276.417969 63.554688 L 348.253906 72.320312 C 348.964844 72.421875 349.664062 72.585938 350.34375 72.8125 C 351.027344 73.042969 351.679688 73.332031 352.308594 73.679688 C 352.9375 74.027344 353.53125 74.433594 354.082031 74.890625 C 354.636719 75.347656 355.144531 75.851562 355.605469 76.402344 C 356.066406 76.957031 356.472656 77.542969 356.824219 78.171875 C 357.175781 78.796875 357.46875 79.449219 357.703125 80.128906 C 357.933594 80.808594 358.101562 81.503906 358.203125 82.214844 C 358.308594 82.925781 358.34375 83.640625 358.316406 84.359375 Z M 136.835938 222.160156 L 152.046875 222.160156 C 152.433594 222.160156 152.808594 222.085938 153.164062 221.9375 C 153.523438 221.789062 153.839844 221.578125 154.113281 221.304688 C 154.386719 221.03125 154.601562 220.714844 154.75 220.355469 C 154.898438 220 154.972656 219.625 154.972656 219.238281 L 154.972656 135.320312 C 154.972656 134.929688 154.898438 134.558594 154.75 134.199219 C 154.601562 133.84375 154.386719 133.527344 154.113281 133.253906 C 153.839844 132.980469 153.523438 132.769531 153.164062 132.621094 C 152.808594 132.472656 152.433594 132.398438 152.046875 132.398438 L 140.347656 132.398438 C 139.703125 132.414062 139.117188 132.609375 138.589844 132.980469 C 136.191406 134.839844 133.578125 136.320312 130.75 137.421875 C 128.25 138.351562 125.679688 138.972656 123.03125 139.292969 C 122.683594 139.335938 122.355469 139.433594 122.042969 139.59375 C 121.734375 139.753906 121.460938 139.960938 121.222656 140.21875 C 120.988281 140.476562 120.804688 140.765625 120.671875 141.089844 C 120.539062 141.414062 120.46875 141.75 120.457031 142.097656 L 120.457031 156.707031 C 120.457031 157.09375 120.53125 157.46875 120.679688 157.824219 C 120.828125 158.183594 121.039062 158.5 121.3125 158.773438 C 121.585938 159.046875 121.902344 159.257812 122.261719 159.40625 C 122.621094 159.554688 122.992188 159.628906 123.382812 159.628906 C 125.835938 159.613281 128.253906 159.300781 130.636719 158.695312 L 133.675781 157.761719 L 133.675781 219.238281 C 133.675781 219.648438 133.757812 220.039062 133.917969 220.414062 C 134.082031 220.789062 134.316406 221.113281 134.613281 221.390625 C 134.914062 221.667969 135.257812 221.875 135.644531 222.007812 C 136.03125 222.144531 136.429688 222.191406 136.835938 222.160156 Z M 185.15625 136.371094 C 186.644531 135.53125 188.183594 134.792969 189.765625 134.152344 C 191.351562 133.507812 192.96875 132.972656 194.625 132.539062 C 196.277344 132.105469 197.953125 131.777344 199.648438 131.558594 C 201.34375 131.339844 203.042969 131.230469 204.753906 131.230469 C 206.464844 131.230469 208.167969 131.339844 209.863281 131.558594 C 211.558594 131.777344 213.230469 132.105469 214.882812 132.539062 C 216.539062 132.972656 218.15625 133.507812 219.742188 134.152344 C 221.324219 134.792969 222.863281 135.53125 224.351562 136.371094 C 227.308594 138.257812 229.921875 140.535156 232.195312 143.203125 C 234.46875 145.871094 236.300781 148.816406 237.6875 152.03125 C 241.050781 160.234375 242.613281 168.769531 242.371094 177.628906 C 242.488281 181.992188 242.15625 186.320312 241.367188 190.613281 C 240.578125 194.90625 239.351562 199.074219 237.6875 203.109375 C 236.324219 206.34375 234.503906 209.296875 232.230469 211.96875 C 229.953125 214.640625 227.328125 216.90625 224.351562 218.769531 C 222.871094 219.628906 221.335938 220.386719 219.753906 221.042969 C 218.171875 221.699219 216.554688 222.25 214.902344 222.695312 C 213.246094 223.140625 211.570312 223.476562 209.871094 223.699219 C 208.171875 223.921875 206.46875 224.035156 204.753906 224.035156 C 203.039062 224.035156 201.335938 223.921875 199.636719 223.699219 C 197.9375 223.476562 196.261719 223.140625 194.605469 222.695312 C 192.953125 222.25 191.335938 221.699219 189.753906 221.042969 C 188.171875 220.386719 186.640625 219.628906 185.15625 218.769531 C 182.179688 216.90625 179.554688 214.640625 177.277344 211.96875 C 175.003906 209.296875 173.183594 206.34375 171.820312 203.109375 C 170.15625 199.074219 168.929688 194.90625 168.140625 190.613281 C 167.351562 186.320312 167.019531 181.992188 167.140625 177.628906 C 166.894531 168.769531 168.457031 160.234375 171.820312 152.03125 C 173.207031 148.816406 175.039062 145.871094 177.3125 143.203125 C 179.585938 140.535156 182.199219 138.257812 185.15625 136.371094 Z M 193.230469 157.175781 C 191.515625 160.300781 190.269531 163.601562 189.496094 167.078125 C 188.71875 170.554688 188.441406 174.074219 188.667969 177.628906 C 188.433594 181.167969 188.707031 184.667969 189.480469 188.125 C 190.257812 191.585938 191.507812 194.867188 193.230469 197.964844 C 193.835938 198.964844 194.558594 199.867188 195.40625 200.675781 C 196.253906 201.480469 197.191406 202.160156 198.21875 202.714844 C 199.246094 203.269531 200.332031 203.679688 201.46875 203.945312 C 202.609375 204.210938 203.761719 204.320312 204.929688 204.277344 C 206.101562 204.339844 207.257812 204.242188 208.402344 203.988281 C 209.546875 203.730469 210.636719 203.324219 211.667969 202.765625 C 212.699219 202.210938 213.636719 201.523438 214.480469 200.707031 C 215.324219 199.894531 216.039062 198.980469 216.628906 197.964844 C 218.351562 194.867188 219.601562 191.585938 220.375 188.125 C 221.152344 184.667969 221.425781 181.167969 221.191406 177.628906 C 221.417969 174.074219 221.140625 170.554688 220.363281 167.078125 C 219.589844 163.601562 218.34375 160.300781 216.628906 157.175781 C 216.039062 156.164062 215.324219 155.25 214.480469 154.433594 C 213.636719 153.617188 212.699219 152.933594 211.667969 152.375 C 210.636719 151.820312 209.546875 151.414062 208.402344 151.15625 C 207.257812 150.898438 206.101562 150.800781 204.929688 150.863281 C 203.761719 150.820312 202.609375 150.933594 201.46875 151.195312 C 200.332031 151.460938 199.246094 151.871094 198.21875 152.425781 C 197.191406 152.980469 196.253906 153.664062 195.40625 154.46875 C 194.558594 155.273438 193.835938 156.175781 193.230469 157.175781 Z M 193.230469 157.175781 " fill-opacity="1" fill-rule="nonzero"/></g><g fill="#000000" fill-opacity="1"><g transform="translate(139.191867, 270.420318)"><g><path d="M 15.234375 0.421875 C 13.703125 0.421875 12.1875 0.195312 10.6875 -0.25 C 9.195312 -0.707031 7.789062 -1.351562 6.46875 -2.1875 C 5.144531 -3.019531 3.960938 -3.992188 2.921875 -5.109375 C 2.816406 -5.222656 2.695312 -5.378906 2.5625 -5.578125 C 2.425781 -5.785156 2.359375 -5.972656 2.359375 -6.140625 C 2.359375 -6.347656 2.476562 -6.570312 2.71875 -6.8125 L 5.734375 -9.765625 C 5.910156 -9.941406 6.113281 -10.03125 6.34375 -10.03125 C 6.625 -10.03125 6.941406 -9.867188 7.296875 -9.546875 C 8.015625 -8.835938 8.773438 -8.191406 9.578125 -7.609375 C 10.378906 -7.023438 11.238281 -6.554688 12.15625 -6.203125 C 13.082031 -5.847656 14.0625 -5.671875 15.09375 -5.671875 C 15.738281 -5.671875 16.394531 -5.757812 17.0625 -5.9375 C 17.726562 -6.113281 18.335938 -6.382812 18.890625 -6.75 C 19.453125 -7.113281 19.90625 -7.570312 20.25 -8.125 C 20.59375 -8.675781 20.765625 -9.320312 20.765625 -10.0625 C 20.765625 -11.289062 20.015625 -12.316406 18.515625 -13.140625 C 18.046875 -13.390625 17.5625 -13.597656 17.0625 -13.765625 C 16.570312 -13.929688 15.910156 -14.132812 15.078125 -14.375 L 14.46875 -14.53125 C 13.457031 -14.832031 12.425781 -15.179688 11.375 -15.578125 C 10.332031 -15.972656 9.328125 -16.441406 8.359375 -16.984375 C 7.390625 -17.523438 6.519531 -18.160156 5.75 -18.890625 C 4.988281 -19.617188 4.382812 -20.460938 3.9375 -21.421875 C 3.5 -22.378906 3.28125 -23.472656 3.28125 -24.703125 C 3.28125 -26.023438 3.515625 -27.195312 3.984375 -28.21875 C 4.453125 -29.238281 5.09375 -30.113281 5.90625 -30.84375 C 6.71875 -31.582031 7.640625 -32.179688 8.671875 -32.640625 C 9.710938 -33.109375 10.8125 -33.453125 11.96875 -33.671875 C 13.132812 -33.898438 14.289062 -34.015625 15.4375 -34.015625 C 16.738281 -34.015625 18.019531 -33.804688 19.28125 -33.390625 C 20.539062 -32.972656 21.734375 -32.398438 22.859375 -31.671875 C 23.984375 -30.941406 24.988281 -30.117188 25.875 -29.203125 C 26.144531 -28.929688 26.28125 -28.65625 26.28125 -28.375 C 26.28125 -28.0625 26.140625 -27.757812 25.859375 -27.46875 L 23.375 -24.796875 C 23.175781 -24.617188 22.972656 -24.53125 22.765625 -24.53125 C 22.460938 -24.53125 22.097656 -24.71875 21.671875 -25.09375 C 21.066406 -25.601562 20.421875 -26.085938 19.734375 -26.546875 C 19.054688 -27.015625 18.34375 -27.398438 17.59375 -27.703125 C 16.84375 -28.015625 16.054688 -28.171875 15.234375 -28.171875 C 14.617188 -28.171875 14.003906 -28.125 13.390625 -28.03125 C 12.773438 -27.945312 12.210938 -27.773438 11.703125 -27.515625 C 11.203125 -27.265625 10.796875 -26.898438 10.484375 -26.421875 C 10.179688 -25.953125 10.03125 -25.332031 10.03125 -24.5625 C 10.03125 -23.5 10.644531 -22.644531 11.875 -22 C 12.40625 -21.707031 13.035156 -21.4375 13.765625 -21.1875 C 14.503906 -20.9375 15.441406 -20.644531 16.578125 -20.3125 C 17.660156 -20 18.738281 -19.644531 19.8125 -19.25 C 20.882812 -18.851562 21.890625 -18.390625 22.828125 -17.859375 C 23.773438 -17.328125 24.613281 -16.691406 25.34375 -15.953125 C 26.082031 -15.210938 26.660156 -14.34375 27.078125 -13.34375 C 27.503906 -12.351562 27.71875 -11.191406 27.71875 -9.859375 C 27.71875 -8.535156 27.476562 -7.328125 27 -6.234375 C 26.53125 -5.148438 25.878906 -4.191406 25.046875 -3.359375 C 24.222656 -2.523438 23.273438 -1.828125 22.203125 -1.265625 C 21.140625 -0.703125 20.007812 -0.28125 18.8125 0 C 17.625 0.28125 16.429688 0.421875 15.234375 0.421875 Z M 15.234375 0.421875 "/></g></g></g><g fill="#000000" fill-opacity="1"><g transform="translate(171.951825, 270.420318)"><g><path d="M 26.9375 0 L 4.515625 0 C 3.929688 0 3.640625 -0.300781 3.640625 -0.90625 L 3.640625 -32.515625 C 3.640625 -33.097656 3.929688 -33.390625 4.515625 -33.390625 L 26.5 -33.390625 C 27.113281 -33.390625 27.421875 -33.097656 27.421875 -32.515625 L 27.421875 -28.140625 C 27.421875 -27.546875 27.113281 -27.25 26.5 -27.25 L 10.21875 -27.25 L 10.21875 -20.4375 L 22.640625 -20.4375 C 23.304688 -20.4375 23.640625 -20.132812 23.640625 -19.53125 L 23.640625 -15.25 C 23.640625 -14.664062 23.304688 -14.375 22.640625 -14.375 L 10.21875 -14.375 L 10.21875 -6.125 L 26.9375 -6.125 C 27.5625 -6.125 27.875 -5.820312 27.875 -5.21875 L 27.875 -0.90625 C 27.875 -0.300781 27.5625 0 26.9375 0 Z M 26.9375 0 "/></g></g></g><g fill="#000000" fill-opacity="1"><g transform="translate(204.081786, 270.420318)"><g><path d="M 19.265625 0.46875 C 17.367188 0.46875 15.5625 0.179688 13.84375 -0.390625 C 12.125 -0.972656 10.539062 -1.785156 9.09375 -2.828125 C 7.65625 -3.878906 6.398438 -5.117188 5.328125 -6.546875 C 4.265625 -7.984375 3.441406 -9.5625 2.859375 -11.28125 C 2.273438 -13.007812 1.984375 -14.835938 1.984375 -16.765625 C 1.984375 -18.671875 2.269531 -20.476562 2.84375 -22.1875 C 3.425781 -23.894531 4.242188 -25.460938 5.296875 -26.890625 C 6.359375 -28.316406 7.609375 -29.550781 9.046875 -30.59375 C 10.484375 -31.644531 12.066406 -32.457031 13.796875 -33.03125 C 15.535156 -33.601562 17.359375 -33.890625 19.265625 -33.890625 C 21.222656 -33.890625 23.003906 -33.617188 24.609375 -33.078125 C 26.210938 -32.546875 27.695312 -31.78125 29.0625 -30.78125 C 29.320312 -30.570312 29.453125 -30.332031 29.453125 -30.0625 C 29.453125 -29.90625 29.414062 -29.769531 29.34375 -29.65625 L 26.953125 -25.625 C 26.804688 -25.425781 26.617188 -25.328125 26.390625 -25.328125 C 26.179688 -25.328125 25.945312 -25.410156 25.6875 -25.578125 C 24.625 -26.242188 23.601562 -26.753906 22.625 -27.109375 C 21.65625 -27.472656 20.535156 -27.65625 19.265625 -27.65625 C 17.734375 -27.65625 16.320312 -27.375 15.03125 -26.8125 C 13.738281 -26.25 12.613281 -25.46875 11.65625 -24.46875 C 10.695312 -23.46875 9.953125 -22.3125 9.421875 -21 C 8.898438 -19.6875 8.640625 -18.273438 8.640625 -16.765625 C 8.640625 -15.265625 8.898438 -13.847656 9.421875 -12.515625 C 9.953125 -11.191406 10.695312 -10.015625 11.65625 -8.984375 C 12.613281 -7.960938 13.738281 -7.15625 15.03125 -6.5625 C 16.320312 -5.976562 17.734375 -5.6875 19.265625 -5.6875 C 20.429688 -5.6875 21.5625 -5.878906 22.65625 -6.265625 C 23.75 -6.648438 24.722656 -7.15625 25.578125 -7.78125 C 25.878906 -8.019531 26.148438 -8.140625 26.390625 -8.140625 C 26.648438 -8.140625 26.851562 -8.03125 27 -7.8125 L 29.265625 -3.953125 C 29.453125 -3.765625 29.546875 -3.578125 29.546875 -3.390625 C 29.546875 -3.148438 29.375 -2.90625 29.03125 -2.65625 C 27.664062 -1.644531 26.179688 -0.867188 24.578125 -0.328125 C 22.984375 0.203125 21.210938 0.46875 19.265625 0.46875 Z M 19.265625 0.46875 "/></g></g></g></svg>