<svg xmlns="http://www.w3.org/2000/svg" viewBox="1350 1350 2634 2634">
<path fill="white" transform="matrix(.13333 0 0 -.13333 0 5333.3)" d="m2e4 28799c-4852 0-8799.5-3947.4-8799.5-8799.4s3947.5-8799.4 8799.5-8799.4 8799.5 3947.4 8799.5 8799.4-3947.5 8799.4-8799.5 8799.4zm0-18581c-5393.7 0-9781.7 4388-9781.7 9781.7s4388 9781.7 9781.7 9781.7 9781.7-4388 9781.7-9781.7-4388-9781.7-9781.7-9781.7"/>
<path fill="white" transform="matrix(.13333 0 0 -.13333 0 5333.3)" d="m22395 15896-489.3 353c-0.5-1-0.5-2.1-1-3.1-71.1-200.1-154-390.8-249.4-573.3-95.9-183-211.5-347.8-346.8-494-135.8-146.7-287.6-236.4-456.1-269.5-126.5-24.4-214.1 30-261.3 163.2-48.2 133.3-80.3 242.6-96.9 327.6-78.3 402.3-71 842.4 21.8 1321.9 92.2 478.9 194.4 965.7 306.3 1459.7 112 493.5 214.1 980.2 306.9 1459.7 92.3 479.5 97.4 930.4 15 1353.9-78.2 402.3-271.1 776-579 1122.8-308.4 345.8-704.4 472.2-1189.1 377.9-253-49.2-517.3-182.5-791.5-399.7-275.3-217.7-546.9-478.9-816-782.2-71-80.3-139.9-161.2-206.8-242l465.5-495.1c118.2 121.3 237.9 210.5 358.2 266.5 120.3 55.9 275.3 102.6 465 139.4 189.7 37.3 254.5-185.6 195.4-667.1-59.6-482.1-168-1049.7-325-1703.4-157.1-654.1-301.2-1316.6-433.4-1987.4-131.6-671.2-162.7-1185.5-93.3-1543.7 90.2-463.9 370.1-781.1 841.3-951.7 470.7-171 927.4-213.5 1370.1-127.5 673.8 131.7 1172.5 436.5 1494.9 914.4 196.5 290.8 375.8 607 538.1 948.6l-43.6 31.1"/>
<path fill="white" transform="matrix(.13333 0 0 -.13333 0 5333.3)" d="m20151 23384c-368.7-71.8-676.5-13.4-922.6 175.8-246.4 188.7-403.6 458.8-472 810.2-71.7 368.7-20.9 715.6 152.8 1041.1 173.4 325 453.4 525.6 839.8 600.7 351 68.3 670.8 16.5 959.5-154.9 288.5-172 467-433.2 535.3-784.2 75.2-386.5 12.6-745-187.1-1075.2-200.1-330.6-502-535-905.7-613.5"/>
</svg>
